<svg xmlns="http://www.w3.org/2000/svg" viewBox="0 0 568.56 141.11"><defs><style>.cls-1{fill:#fff;}.cls-2{fill:#4690ff;}</style></defs><title>logo-promo-blanco</title><g id="Capa_2" data-name="Capa 2"><g id="Capa_1-2" data-name="Capa 1"><path class="cls-1" d="M126.8,38.8h5.36v7.66a21.52,21.52,0,0,1,7.31-6.55,19.43,19.43,0,0,1,9.22-2.18,20.58,20.58,0,0,1,15.19,6.4,21.13,21.13,0,0,1,6.31,15.4,21.52,21.52,0,0,1-6.26,15.61,21.07,21.07,0,0,1-24.24,4.35,23,23,0,0,1-7.54-6.17V95.72H126.8Zm21.45,4.1a15.75,15.75,0,0,0-11.71,4.86,16.6,16.6,0,0,0-4.76,12.09,17.15,17.15,0,0,0,2.12,8.53,15.47,15.47,0,0,0,6.08,6,16.81,16.81,0,0,0,8.35,2.22,15.74,15.74,0,0,0,8.12-2.24,16.43,16.43,0,0,0,6.06-6.26,16.9,16.9,0,0,0,0-16.83,16.15,16.15,0,0,0-14.27-8.38Z"/><path class="cls-1" d="M180.4,38.8h5.48v6.09a19.23,19.23,0,0,1,5.17-5.38,10.2,10.2,0,0,1,5.67-1.78,9.79,9.79,0,0,1,4.75,1.42l-2.8,4.52a7.47,7.47,0,0,0-2.83-.73,7.75,7.75,0,0,0-5.17,2.2A13.92,13.92,0,0,0,186.88,52q-1,3.56-1,14.4v14.1H180.4Z"/><path class="cls-1" d="M227.65,37.73a20.64,20.64,0,0,1,16,7A22.38,22.38,0,0,1,243.28,75,22,22,0,0,1,212,75a22.33,22.33,0,0,1-.33-30.28A20.63,20.63,0,0,1,227.65,37.73Zm0,5.25a15.47,15.47,0,0,0-11.49,4.94,16.52,16.52,0,0,0-4.8,12,16.94,16.94,0,0,0,2.19,8.43,15.52,15.52,0,0,0,5.92,6,16.83,16.83,0,0,0,16.37,0,15.52,15.52,0,0,0,5.92-6,17,17,0,0,0,2.19-8.43,16.48,16.48,0,0,0-4.82-12A15.49,15.49,0,0,0,227.63,43Z"/><path class="cls-1" d="M261.45,38.8h5.36V46a20.76,20.76,0,0,1,5.75-5.82,16.31,16.31,0,0,1,8.55-2.45,14.24,14.24,0,0,1,5.75,1.19,12.37,12.37,0,0,1,4.45,3.16,17,17,0,0,1,3,5.65A19.79,19.79,0,0,1,301,40.27a15.82,15.82,0,0,1,8.64-2.55,13.51,13.51,0,0,1,7.62,2.18A13,13,0,0,1,322.16,46q1.61,3.91,1.61,11.72V80.47h-5.48V57.72q0-6.7-1-9.21a8.3,8.3,0,0,0-3.26-4,9.75,9.75,0,0,0-5.52-1.53,12,12,0,0,0-7.12,2.3,13.22,13.22,0,0,0-4.72,6.13q-1.49,3.83-1.49,12.79V80.47h-5.36V59.14q0-7.55-.94-10.25a8.58,8.58,0,0,0-3.28-4.33,9.47,9.47,0,0,0-5.55-1.63,12,12,0,0,0-7,2.24,13.27,13.27,0,0,0-4.79,6q-1.55,3.79-1.55,11.61V80.47h-5.36Z"/><path class="cls-1" d="M357,37.73a20.64,20.64,0,0,1,16,7A22.38,22.38,0,0,1,372.63,75a22,22,0,0,1-31.31,0A22.33,22.33,0,0,1,341,44.74,20.63,20.63,0,0,1,357,37.73ZM357,43a15.47,15.47,0,0,0-11.49,4.94,16.52,16.52,0,0,0-4.8,12,16.94,16.94,0,0,0,2.19,8.43,15.52,15.52,0,0,0,5.92,6,16.83,16.83,0,0,0,16.37,0,15.52,15.52,0,0,0,5.92-6,17,17,0,0,0,2.19-8.43,16.48,16.48,0,0,0-4.82-12A15.49,15.49,0,0,0,357,43Z"/><path class="cls-1" d="M431.28,47.45,427,50.1a17.81,17.81,0,0,0-15-7.32,17.4,17.4,0,0,0-12.64,4.9,16,16,0,0,0-5,11.9,16.89,16.89,0,0,0,2.31,8.57A16.22,16.22,0,0,0,403,74.39a19.21,19.21,0,0,0,24-5.1l4.25,2.8a20.08,20.08,0,0,1-8,7,25.63,25.63,0,0,1-11.47,2.48,22.66,22.66,0,0,1-16.39-6.28A20.44,20.44,0,0,1,388.87,60a21.83,21.83,0,0,1,3-11.24,21.45,21.45,0,0,1,8.37-8.1,24.42,24.42,0,0,1,11.91-2.91,25.44,25.44,0,0,1,8,1.26,22.21,22.21,0,0,1,6.53,3.29A17.93,17.93,0,0,1,431.28,47.45Z"/><path class="cls-1" d="M485.3,38.8V80.47H480V73.31a23,23,0,0,1-7.57,6.17,21.13,21.13,0,0,1-24.29-4.35,21.51,21.51,0,0,1-6.26-15.61,21.12,21.12,0,0,1,6.32-15.4,20.61,20.61,0,0,1,15.21-6.4,19.67,19.67,0,0,1,9.29,2.18,21.14,21.14,0,0,1,7.3,6.55V38.8Zm-21.43,4.1a16.17,16.17,0,0,0-14.29,8.38,16.88,16.88,0,0,0,0,16.83,16.43,16.43,0,0,0,6.06,6.26,15.84,15.84,0,0,0,8.17,2.24,16.74,16.74,0,0,0,8.34-2.22,15.52,15.52,0,0,0,6.06-6,17.15,17.15,0,0,0,2.12-8.53,16.59,16.59,0,0,0-4.76-12.09A15.78,15.78,0,0,0,463.87,42.9Z"/><path class="cls-1" d="M520.51,43.36l-3.45,3.56q-4.3-4.17-8.41-4.18a6.35,6.35,0,0,0-4.47,1.72,5.32,5.32,0,0,0-1.86,4,6,6,0,0,0,1.53,3.87q1.54,1.88,6.45,4.41,6,3.1,8.14,6a10.89,10.89,0,0,1,2.11,6.55,11.76,11.76,0,0,1-3.61,8.7,12.31,12.31,0,0,1-9,3.56A15.76,15.76,0,0,1,501,80a15,15,0,0,1-5.43-4.33L499,71.82q4.11,4.64,8.72,4.63a7.85,7.85,0,0,0,5.49-2.07,6.39,6.39,0,0,0,2.27-4.86,6.24,6.24,0,0,0-1.5-4.1q-1.5-1.76-6.76-4.44-5.64-2.91-7.68-5.75a10.83,10.83,0,0,1-2-6.47,10.53,10.53,0,0,1,3.24-7.89,11.3,11.3,0,0,1,8.19-3.14Q514.68,37.73,520.51,43.36Z"/><path class="cls-1" d="M532.21,22.71h5.36V46.27a22.79,22.79,0,0,1,7.16-6.42,17.43,17.43,0,0,1,8.47-2.13,14.77,14.77,0,0,1,8.29,2.37,14.16,14.16,0,0,1,5.34,6.38q1.72,4,1.72,12.54V80.47H563.2V60.59a50.83,50.83,0,0,0-.57-9.61A10.91,10.91,0,0,0,559,44.75a10.72,10.72,0,0,0-6.88-2.09,13.23,13.23,0,0,0-8.71,3.22,15.08,15.08,0,0,0-5.07,8q-.77,3.06-.77,11.34V80.47h-5.36Z"/><path class="cls-2" d="M42.26,90.29a5.1,5.1,0,0,0,.59,2.53,6.18,6.18,0,0,0,1.5,1.79,7.72,7.72,0,0,0,2.12,1.2c.48.18,1,.34,1.45.49v-12A7.06,7.06,0,0,0,44,85.63Q42.26,87,42.26,90.29Z"/><path class="cls-2" d="M56.45,107.09a9,9,0,0,0-2.33-1.3c-.53-.2-1.07-.38-1.62-.55v13.93a8.57,8.57,0,0,0,4.18-1.8q2-1.7,2-5.4a6.17,6.17,0,0,0-.62-2.9A6.05,6.05,0,0,0,56.45,107.09Z"/><path class="cls-2" d="M45.68,0H0V116.72H26.34V110H6.39V6.7H45.68C61.32,6.7,74,20,74,36.35a31.25,31.25,0,0,1-.28,4.17,30.69,30.69,0,0,1-1,4.65C69.14,57.25,58.38,66,45.68,66H30v75.1h9.29s41.11-2.23,41.11-42.41V36.35C80.39,16.31,64.82,0,45.68,0ZM64.35,117a11.91,11.91,0,0,1-3,4.26,13,13,0,0,1-4.42,2.59,18.3,18.3,0,0,1-4.45.94v5H47.93v-5a17.15,17.15,0,0,1-4.85-1A13,13,0,0,1,38.55,121a12.33,12.33,0,0,1-2.92-4.48,16,16,0,0,1-1-6.11h6.72a10.19,10.19,0,0,0,1.71,6.42,6.62,6.62,0,0,0,4.85,2.4V104.07c-1.28-.39-2.55-.82-3.81-1.33a17.26,17.26,0,0,1-4.31-2.47,11.47,11.47,0,0,1-3.1-3.8,12.31,12.31,0,0,1-1.18-5.68,11.84,11.84,0,0,1,1.09-5.22,10.92,10.92,0,0,1,2.95-3.77,13.38,13.38,0,0,1,4.28-2.32,15.77,15.77,0,0,1,4.08-.77V74.46H52.5v4.25a16.29,16.29,0,0,1,4,.7,11.59,11.59,0,0,1,4.1,2.22,10.58,10.58,0,0,1,2.77,3.77,12.79,12.79,0,0,1,1,5.31H57.66a7.6,7.6,0,0,0-1.56-4.82,5.22,5.22,0,0,0-3.59-1.61V97.59c1.41.42,2.8.88,4.15,1.41a17.2,17.2,0,0,1,4.48,2.53,11.63,11.63,0,0,1,3.13,3.83A12.16,12.16,0,0,1,65.44,111,15.3,15.3,0,0,1,64.35,117Z"/><path class="cls-1" d="M42.26,90.29a5.1,5.1,0,0,0,.59,2.53,6.18,6.18,0,0,0,1.5,1.79,7.72,7.72,0,0,0,2.12,1.2c.48.18,1,.34,1.45.49v-12A7.06,7.06,0,0,0,44,85.63Q42.26,87,42.26,90.29Z"/><path class="cls-1" d="M56.45,107.09a9,9,0,0,0-2.33-1.3c-.53-.2-1.07-.38-1.62-.55v13.93a8.57,8.57,0,0,0,4.18-1.8q2-1.7,2-5.4a6.17,6.17,0,0,0-.62-2.9A6.05,6.05,0,0,0,56.45,107.09Z"/><path class="cls-1" d="M45.68,0H0V116.72H26.34V110H6.39V6.7H45.68C61.32,6.7,74,20,74,36.35a31.25,31.25,0,0,1-.28,4.17,30.69,30.69,0,0,1-1,4.65C69.14,57.25,58.38,66,45.68,66H30v75.1h9.29s41.11-2.23,41.11-42.41V36.35C80.39,16.31,64.82,0,45.68,0ZM64.35,117a11.91,11.91,0,0,1-3,4.26,13,13,0,0,1-4.42,2.59,18.3,18.3,0,0,1-4.45.94v5H47.93v-5a17.15,17.15,0,0,1-4.85-1A13,13,0,0,1,38.55,121a12.33,12.33,0,0,1-2.92-4.48,16,16,0,0,1-1-6.11h6.72a10.19,10.19,0,0,0,1.71,6.42,6.62,6.62,0,0,0,4.85,2.4V104.07c-1.28-.39-2.55-.82-3.81-1.33a17.26,17.26,0,0,1-4.31-2.47,11.47,11.47,0,0,1-3.1-3.8,12.31,12.31,0,0,1-1.18-5.68,11.84,11.84,0,0,1,1.09-5.22,10.92,10.92,0,0,1,2.95-3.77,13.38,13.38,0,0,1,4.28-2.32,15.77,15.77,0,0,1,4.08-.77V74.46H52.5v4.25a16.29,16.29,0,0,1,4,.7,11.59,11.59,0,0,1,4.1,2.22,10.58,10.58,0,0,1,2.77,3.77,12.79,12.79,0,0,1,1,5.31H57.66a7.6,7.6,0,0,0-1.56-4.82,5.22,5.22,0,0,0-3.59-1.61V97.59c1.41.42,2.8.88,4.15,1.41a17.2,17.2,0,0,1,4.48,2.53,11.63,11.63,0,0,1,3.13,3.83A12.16,12.16,0,0,1,65.44,111,15.3,15.3,0,0,1,64.35,117Z"/></g></g></svg>